<?xml version="1.0" standalone="no"?>
<!DOCTYPE svg PUBLIC "-//W3C//DTD SVG 20010904//EN"
 "http://www.w3.org/TR/2001/REC-SVG-20010904/DTD/svg10.dtd">
<svg version="1.0" xmlns="http://www.w3.org/2000/svg"
 width="200.000000pt" height="110.000000pt" viewBox="0 0 200.000000 110.000000"
 preserveAspectRatio="xMidYMid meet">

<g transform="translate(0.000000,110.000000) scale(0.100000,-0.100000)"
fill="#000000" stroke="none">
<path d="M306 799 c-30 -35 -34 -84 -11 -129 19 -36 43 -50 88 -50 36 0 88 32
75 46 -5 4 -17 -1 -28 -11 -50 -45 -130 -2 -130 70 0 71 80 115 129 71 11 -10
21 -13 25 -7 11 17 -36 41 -80 41 -35 0 -47 -5 -68 -31z"/>
<path d="M522 808 c-33 -37 -44 -76 -32 -114 25 -74 113 -99 162 -46 47 50 48
108 3 156 -32 35 -101 37 -133 4z m129 -30 c38 -71 -20 -162 -87 -137 -48 17
-71 100 -40 141 31 41 104 39 127 -4z"/>
<path d="M722 754 c7 -98 27 -128 89 -132 37 -2 49 1 69 23 21 23 25 38 29
106 4 102 -14 105 -22 2 -6 -86 -25 -115 -73 -115 -46 0 -64 33 -64 118 0 62
-3 74 -16 74 -14 0 -16 -10 -12 -76z"/>
<path d="M960 725 c0 -126 18 -143 22 -20 l3 84 68 -84 c37 -47 72 -85 77 -85
6 0 10 43 10 105 0 127 -18 142 -22 19 l-3 -87 -68 87 c-37 47 -72 86 -77 86
-6 0 -10 -42 -10 -105z"/>
<path d="M1175 820 c3 -5 22 -10 41 -10 l34 0 0 -95 c0 -57 4 -95 10 -95 6 0
10 38 10 95 l0 95 40 0 c22 0 40 5 40 10 0 6 -37 10 -91 10 -57 0 -88 -4 -84
-10z"/>
<path d="M1380 725 l0 -105 75 0 c43 0 75 4 75 10 0 6 -28 10 -65 10 l-65 0 0
40 0 40 55 0 c30 0 55 5 55 10 0 6 -25 10 -55 10 l-55 0 0 35 0 35 59 0 c33 0
63 5 66 10 4 6 -22 10 -69 10 l-76 0 0 -105z"/>
<path d="M1570 725 c0 -63 4 -105 10 -105 6 0 10 18 10 40 0 38 2 40 30 40 24
0 35 -8 56 -40 15 -22 31 -40 35 -40 13 0 11 5 -11 43 l-20 34 20 18 c25 23
26 76 2 98 -13 12 -37 17 -75 17 l-57 0 0 -105z m118 73 c7 -7 12 -21 12 -33
0 -32 -20 -45 -67 -45 l-43 0 0 45 0 45 43 0 c24 0 48 -5 55 -12z"/>
<path d="M463 533 c97 -2 257 -2 355 0 97 1 17 2 -178 2 -195 0 -275 -1 -177
-2z"/>
<path d="M420 447 c0 -2 -18 -45 -39 -95 -24 -57 -35 -92 -27 -92 6 0 17 14
23 30 10 27 15 30 56 30 42 0 46 -2 52 -30 4 -16 13 -30 20 -30 9 0 1 30 -28
95 -22 52 -44 95 -49 95 -4 0 -8 -1 -8 -3z m28 -60 c16 -46 16 -47 -18 -47
-16 0 -30 3 -30 7 0 14 24 73 30 73 3 0 11 -15 18 -33z"/>
<path d="M540 361 c0 -50 5 -93 10 -96 6 -4 10 8 10 28 0 33 2 35 40 40 51 7
70 22 70 57 0 39 -28 60 -83 60 l-47 0 0 -89z m108 35 c4 -34 -10 -46 -55 -46
-32 0 -33 2 -33 39 0 43 10 51 55 41 24 -4 31 -12 33 -34z"/>
<path d="M700 355 c0 -57 4 -95 10 -95 6 0 10 15 10 34 0 31 2 34 40 39 51 7
70 22 70 58 0 41 -24 59 -81 59 l-49 0 0 -95z m107 58 c12 -16 7 -43 -11 -55
-6 -4 -26 -8 -43 -8 -32 0 -33 1 -33 45 l0 46 38 -7 c20 -3 42 -13 49 -21z"/>
</g>
</svg>
